<?xml version="1.0" encoding="UTF-8"?>
<svg id="Layer_1" data-name="Layer 1" xmlns="http://www.w3.org/2000/svg" viewBox="0 0 548.61 654.37">
  <defs>
    <style>
      .cls-1 {
        fill: #00bd7e;
      }
    </style>
  </defs>
  <path class="cls-1" d="m274.35,654.36c38.7-.04,76.96-8.25,112.27-24.1,35.31-15.85,66.87-38.98,92.62-67.87,2.71-3.01,2.46-7.65-.55-10.36-3.01-2.71-7.65-2.46-10.36.55-43.6,48.8-104.1,79.25-169.28,85.19-65.18,5.94-130.18-13.06-181.9-53.17-51.71-40.11-86.28-98.34-96.74-162.95-10.45-64.6,3.99-130.77,40.42-185.14,36.42-54.37,92.12-92.9,155.85-107.81,63.73-14.91,130.73-5.1,187.51,27.47,56.77,32.56,99.07,85.45,118.37,147.98,19.3,62.54,14.16,130.07-14.38,188.96-1.62,3.59-.08,7.81,3.46,9.52s7.81.29,9.62-3.2c24.07-49.78,32.52-105.68,24.26-160.36-8.27-54.68-32.87-105.58-70.58-146.02l24.36-28.72c3.08-3.61,4.59-8.3,4.21-13.03-.38-4.73-2.63-9.12-6.25-12.19l-31.48-26.76c-7.55-6.42-18.88-5.51-25.3,2.04l-25.59,30.1h0c-40.34-24.15-86.26-37.43-133.26-38.53v-46.31h59.62,0c1.93,0,3.78-.77,5.14-2.13,1.36-1.36,2.13-3.22,2.13-5.14V7.27c0-1.93-.77-3.78-2.13-5.14s-3.22-2.13-5.14-2.13h-133.78c-4.02,0-7.27,3.26-7.27,7.27v45.08c0,1.93.77,3.78,2.13,5.14,1.36,1.36,3.22,2.13,5.14,2.13h59.62v46.31c-47.02,1.15-92.94,14.47-133.26,38.68l-25.59-30.1h0c-6.43-7.54-17.75-8.45-25.3-2.03l-31.48,26.76h0c-3.62,3.07-5.87,7.46-6.25,12.19-.38,4.73,1.13,9.42,4.21,13.03l24.36,28.72C24.87,245.55-1.58,314.97.07,386.6c1.66,71.63,31.29,139.75,82.56,189.8,51.27,50.05,120.09,78.03,191.74,77.97h-.02ZM214.73,14.53h119.24v30.54h-119.24V14.53Zm236.88,109.06c1.28-1.16,3.23-1.16,4.51,0l31.56,26.76c.67.59,1.09,1.43,1.16,2.33.09.9-.2,1.79-.8,2.47l-23.56,27.7c-11.59-11.12-24.12-21.21-37.44-30.17l24.57-29.09Zm-391.96,29.09c.07-.9.49-1.73,1.16-2.33l31.77-26.76c.67-.58,1.55-.87,2.44-.8.89.07,1.71.49,2.29,1.17l24.35,28.72c-13.31,9.01-25.81,19.15-37.37,30.32l-23.56-27.7c-.75-.66-1.15-1.63-1.09-2.62h0Zm150.06,421.7c18.54,6.1,37.86,9.5,57.37,10.11v-17.81c0-4.02,3.26-7.27,7.27-7.27s7.27,3.26,7.27,7.27v17.88c49.23-1.72,96.18-21.19,132.17-54.82l-12.58-12.58c-1.37-1.36-2.14-3.21-2.15-5.14-.01-1.93.75-3.78,2.11-5.15,2.83-2.85,7.44-2.87,10.29-.04l12.58,12.65h0c33.67-35.97,53.15-82.94,54.82-132.18h-17.88c-4.02,0-7.27-3.26-7.27-7.27s3.26-7.27,7.27-7.27h17.89,0c-1.67-49.25-21.15-96.21-54.82-132.18l-12.58,12.58c-1.37,1.36-3.23,2.12-5.16,2.11-1.91-.01-3.74-.77-5.09-2.11-2.82-2.84-2.82-7.41,0-10.25l12.58-12.65h0c-36.01-33.6-82.95-53.07-132.17-54.82v17.89h0c0,4.01-3.26,7.27-7.27,7.27s-7.27-3.26-7.27-7.27v-17.88c-49.23,1.75-96.16,21.22-132.17,54.82l12.58,12.65h0c2.82,2.84,2.82,7.42,0,10.25-1.35,1.34-3.18,2.1-5.09,2.11-1.93.01-3.79-.75-5.16-2.11l-12.58-12.58c-33.67,35.97-53.15,82.94-54.82,132.18h17.89,0c4.02,0,7.27,3.26,7.27,7.27s-3.26,7.27-7.27,7.27h-17.88c1.56,49.26,20.99,96.27,54.68,132.25l12.72-12.72h0c2.85-2.83,7.46-2.81,10.29.04,2.83,2.86,2.81,7.46-.04,10.29l-12.72,12.72c9.9,9.15,20.67,17.34,32.13,24.43,2.72,2.28,3.39,6.19,1.59,9.26-1.8,3.06-5.54,4.37-8.86,3.1-14.49-8.95-27.89-19.56-39.92-31.63-41.01-41.08-64.05-96.75-64.05-154.8s23.04-113.72,64.05-154.79v-.51h.51c41.03-40.92,96.63-63.9,154.57-63.9s113.54,22.98,154.57,63.9h.51v.51h0c40.92,41.03,63.89,96.63,63.89,154.57s-22.97,113.54-63.89,154.58v.44h-.51c-28.75,28.66-64.91,48.76-104.43,58.07-39.51,9.31-80.84,7.45-119.37-5.37-3.81-1.25-5.89-5.35-4.65-9.16,1.41-3.46,5.21-5.28,8.79-4.22h0Zm195.52-262.47c-1.87-3.51-6.21-4.87-9.74-3.05l-93.58,48.64c-7.87-9.89-20.17-15.19-32.76-14.12-12.6,1.07-23.83,8.36-29.93,19.43-6.1,11.07-6.26,24.46-.44,35.68,5.83,11.22,16.88,18.78,29.45,20.15,12.57,1.37,24.99-3.63,33.1-13.33,8.11-9.7,10.84-22.81,7.27-34.93l93.5-48.64c1.72-.89,3.02-2.42,3.6-4.26.59-1.84.42-3.84-.47-5.56h0Zm-130.87,89.36c-5.63,0-11.03-2.24-15.01-6.22-3.98-3.98-6.22-9.38-6.22-15.01s2.24-11.03,6.22-15.01c3.98-3.98,9.38-6.22,15.01-6.22s11.03,2.24,15.01,6.22c3.98,3.98,6.22,9.38,6.22,15.01s-2.24,11.03-6.22,15.01c-3.98,3.98-9.38,6.22-15.01,6.22Zm215.72,129.49c-.35-.88-.52-1.82-.51-2.76-.02-1.93.75-3.79,2.1-5.16,2.08-2.18,5.29-2.84,8.07-1.67.86.41,1.64.95,2.32,1.6,1.39,1.36,2.18,3.22,2.18,5.16,0,1.93-.77,3.78-2.13,5.14-1.36,1.36-3.22,2.13-5.14,2.13-1.93.01-3.79-.75-5.16-2.1-.71-.67-1.3-1.46-1.74-2.33h0Z"/>
</svg>