<?xml version="1.0" encoding="UTF-8"?>
<svg id="Layer_1" data-name="Layer 1" xmlns="http://www.w3.org/2000/svg" viewBox="0 0 700 596.34">
  <defs>
    <style>
      .cls-1 {
        fill: #00bd7e;
      }
    </style>
  </defs>
  <path class="cls-1" d="m332.59,596.32c24.07.06,47.17-9.52,64.14-26.59l173.02-172.93c16.99-17.02,26.53-40.09,26.53-64.14s-9.54-47.12-26.53-64.14L327.85,26.55C310.08,8.84,285.79-.75,260.71.05L48.88,6.99h0c-11.01.37-21.47,4.91-29.26,12.71s-12.33,18.25-12.71,29.27L.05,260.79c-.79,25.07,8.79,49.36,26.5,67.14l241.89,241.89c16.98,17.04,40.07,26.59,64.14,26.51v-.02ZM55.19,262.6l6.63-201.1,200.79-6.55c9.82-.31,19.33,3.46,26.27,10.41l241.81,242.13c6.63,6.66,10.35,15.68,10.35,25.08s-3.72,18.42-10.35,25.09l-172.78,173.1c-6.66,6.65-15.68,10.38-25.09,10.38s-18.43-3.73-25.09-10.38l-242.12-241.89c-6.95-6.95-10.71-16.46-10.42-26.27h0Z"/>
  <path class="cls-1" d="m458.58,40.52c-7.04-6.98-17.28-9.66-26.85-7.05-9.56,2.61-17,10.13-19.52,19.72-2.52,9.59.28,19.8,7.32,26.77l205.67,205.21c12.51,12.57,19.52,29.6,19.52,47.33s-7.02,34.76-19.52,47.34l-145.49,145.64c-7.04,6.98-9.83,17.18-7.31,26.77,2.52,9.59,9.96,17.11,19.52,19.72,9.56,2.61,19.8-.07,26.85-7.05l145.48-145.87c22.89-22.95,35.75-54.05,35.75-86.47s-12.86-63.51-35.75-86.47L458.58,40.52Z"/>
  <path class="cls-1" d="m212.75,126.43c-22.92,0-44.89,9.1-61.09,25.31-16.2,16.21-25.3,38.19-25.3,61.1.01,22.92,9.12,44.89,25.33,61.09,16.21,16.2,38.2,25.29,61.11,25.27,22.92-.01,44.89-9.13,61.08-25.35s25.28-38.2,25.25-61.12c-.12-22.87-9.27-44.76-25.44-60.92-16.18-16.16-38.08-25.29-60.95-25.39h0Zm0,117.55h0c-8.26,0-16.19-3.29-22.04-9.13-5.84-5.84-9.12-13.77-9.12-22.04s3.28-16.19,9.12-22.04c5.84-5.84,13.77-9.12,22.04-9.12s16.2,3.28,22.04,9.12c5.84,5.84,9.12,13.77,9.12,22.04-.12,8.22-3.45,16.07-9.27,21.87-5.82,5.81-13.68,9.11-21.9,9.21v.08Z"/>
</svg>